<?xml version="1.0" encoding="UTF-8" standalone="no"?>
<!DOCTYPE svg PUBLIC "-//W3C//DTD SVG 1.1//EN"
 "http://www.w3.org/Graphics/SVG/1.1/DTD/svg11.dtd">
<!-- Generated by graphviz version 2.43.0 (0)
 -->
<!-- Title: C4Component Pages: 1 -->
<svg width="859pt" height="888pt"
 viewBox="0.00 0.00 859.20 888.33" xmlns="http://www.w3.org/2000/svg" xmlns:xlink="http://www.w3.org/1999/xlink">
<g id="graph0" class="graph" transform="scale(1 1) rotate(0) translate(21.6 866.73)">
<title>C4Component</title>
<polygon fill="white" stroke="transparent" points="-21.6,21.6 -21.6,-866.73 837.6,-866.73 837.6,21.6 -21.6,21.6"/>
<g id="clust1" class="cluster">
<title>cluster_mw</title>
<path fill="white" stroke="#00786f" stroke-dasharray="5,2" d="M43,-502.12C43,-502.12 225,-502.12 225,-502.12 231,-502.12 237,-508.12 237,-514.12 237,-514.12 237,-565.12 237,-565.12 237,-571.12 231,-577.12 225,-577.12 225,-577.12 43,-577.12 43,-577.12 37,-577.12 31,-571.12 31,-565.12 31,-565.12 31,-514.12 31,-514.12 31,-508.12 37,-502.12 43,-502.12"/>
<text text-anchor="start" x="39" y="-566.12" font-family="Helvetica,sans-Serif" font-weight="bold" font-size="10.00">Lanț de middleware</text>
</g>
<g id="clust2" class="cluster">
<title>cluster_svc</title>
<path fill="white" stroke="#00786f" stroke-dasharray="5,2" d="M20,-175.12C20,-175.12 384,-175.12 384,-175.12 390,-175.12 396,-181.12 396,-187.12 396,-187.12 396,-347.62 396,-347.62 396,-353.62 390,-359.62 384,-359.62 384,-359.62 20,-359.62 20,-359.62 14,-359.62 8,-353.62 8,-347.62 8,-347.62 8,-187.12 8,-187.12 8,-181.12 14,-175.12 20,-175.12"/>
<text text-anchor="start" x="16" y="-348.62" font-family="Helvetica,sans-Serif" font-weight="bold" font-size="10.00">Servicii (logică de business)</text>
</g>
<!-- browser -->
<g id="node1" class="node">
<title>browser</title>
<path fill="#3da9a5" stroke="black" d="M274.5,-845.12C274.5,-845.12 223.5,-845.12 223.5,-845.12 217.5,-845.12 211.5,-839.12 211.5,-833.12 211.5,-833.12 211.5,-821.12 211.5,-821.12 211.5,-815.12 217.5,-809.12 223.5,-809.12 223.5,-809.12 274.5,-809.12 274.5,-809.12 280.5,-809.12 286.5,-815.12 286.5,-821.12 286.5,-821.12 286.5,-833.12 286.5,-833.12 286.5,-839.12 280.5,-845.12 274.5,-845.12"/>
<text text-anchor="start" x="225.5" y="-825.62" font-family="Helvetica,sans-Serif" font-weight="bold" font-size="10.00" fill="white">Browser</text>
</g>
<!-- front -->
<g id="node2" class="node">
<title>front</title>
<path fill="#85bbf0" stroke="black" d="M295.5,-749.12C295.5,-749.12 202.5,-749.12 202.5,-749.12 196.5,-749.12 190.5,-743.12 190.5,-737.12 190.5,-737.12 190.5,-722.12 190.5,-722.12 190.5,-716.12 196.5,-710.12 202.5,-710.12 202.5,-710.12 295.5,-710.12 295.5,-710.12 301.5,-710.12 307.5,-716.12 307.5,-722.12 307.5,-722.12 307.5,-737.12 307.5,-737.12 307.5,-743.12 301.5,-749.12 295.5,-749.12"/>
<text text-anchor="start" x="204.5" y="-732.12" font-family="Helvetica,sans-Serif" font-weight="bold" font-size="10.00">Front controller</text>
<text text-anchor="start" x="216" y="-722.92" font-family="Helvetica,sans-Serif" font-size="9.00">public/api.php</text>
</g>
<!-- browser&#45;&gt;front -->
<g id="edge1" class="edge">
<title>browser&#45;&gt;front</title>
<path fill="none" stroke="#525252" d="M249,-809.05C249,-795.23 249,-775.47 249,-759.24"/>
<polygon fill="#525252" stroke="#525252" points="252.5,-759.18 249,-749.18 245.5,-759.18 252.5,-759.18"/>
<text text-anchor="middle" x="260.5" y="-776.92" font-family="Helvetica,sans-Serif" font-size="9.00">HTTP</text>
</g>
<!-- router -->
<g id="node3" class="node">
<title>router</title>
<path fill="#85bbf0" stroke="black" d="M232,-659.12C232,-659.12 120,-659.12 120,-659.12 114,-659.12 108,-653.12 108,-647.12 108,-647.12 108,-632.12 108,-632.12 108,-626.12 114,-620.12 120,-620.12 120,-620.12 232,-620.12 232,-620.12 238,-620.12 244,-626.12 244,-632.12 244,-632.12 244,-647.12 244,-647.12 244,-653.12 238,-659.12 232,-659.12"/>
<text text-anchor="start" x="157" y="-642.12" font-family="Helvetica,sans-Serif" font-weight="bold" font-size="10.00">Router</text>
<text text-anchor="start" x="122" y="-632.92" font-family="Helvetica,sans-Serif" font-size="9.00">potrivire rută → handler</text>
</g>
<!-- front&#45;&gt;router -->
<g id="edge2" class="edge">
<title>front&#45;&gt;router</title>
<path fill="none" stroke="#525252" d="M233.52,-709.96C223.16,-697.48 209.38,-680.87 197.91,-667.03"/>
<polygon fill="#525252" stroke="#525252" points="200.54,-664.72 191.46,-659.26 195.15,-669.19 200.54,-664.72"/>
</g>
<!-- container -->
<g id="node4" class="node">
<title>container</title>
<path fill="#ffb86a" stroke="black" d="M373,-549.62C373,-549.62 271,-549.62 271,-549.62 265,-549.62 259,-543.62 259,-537.62 259,-537.62 259,-522.62 259,-522.62 259,-516.62 265,-510.62 271,-510.62 271,-510.62 373,-510.62 373,-510.62 379,-510.62 385,-516.62 385,-522.62 385,-522.62 385,-537.62 385,-537.62 385,-543.62 379,-549.62 373,-549.62"/>
<text text-anchor="start" x="286.5" y="-532.62" font-family="Helvetica,sans-Serif" font-weight="bold" font-size="10.00">DI Container</text>
<text text-anchor="start" x="273" y="-523.42" font-family="Helvetica,sans-Serif" font-size="9.00">rezolvare prin reflexie</text>
</g>
<!-- front&#45;&gt;container -->
<g id="edge3" class="edge">
<title>front&#45;&gt;container</title>
<path fill="none" stroke="#ea6c00" stroke-dasharray="5,2" d="M255.87,-710.04C268.72,-675.27 296.48,-600.18 311.62,-559.2"/>
<polygon fill="#ea6c00" stroke="#ea6c00" points="314.91,-560.39 315.1,-549.8 308.35,-557.97 314.91,-560.39"/>
<text text-anchor="middle" x="316" y="-637.42" font-family="Helvetica,sans-Serif" font-size="9.00">construiește</text>
</g>
<!-- mw -->
<g id="node5" class="node">
<title>mw</title>
<path fill="#46ecd5" stroke="black" d="M215,-548.12C215,-548.12 53,-548.12 53,-548.12 47,-548.12 41,-542.12 41,-536.12 41,-536.12 41,-524.12 41,-524.12 41,-518.12 47,-512.12 53,-512.12 53,-512.12 215,-512.12 215,-512.12 221,-512.12 227,-518.12 227,-524.12 227,-524.12 227,-536.12 227,-536.12 227,-542.12 221,-548.12 215,-548.12"/>
<text text-anchor="start" x="55" y="-527.62" font-family="Helvetica,sans-Serif" font-size="10.00">RateLimiter · Auth · Csrf · Admin</text>
</g>
<!-- router&#45;&gt;mw -->
<g id="edge4" class="edge">
<title>router&#45;&gt;mw</title>
<path fill="none" stroke="#525252" d="M168.68,-619.9C161.96,-602.69 151.92,-576.99 144.37,-557.66"/>
<polygon fill="#525252" stroke="#525252" points="147.58,-556.26 140.68,-548.22 141.06,-558.81 147.58,-556.26"/>
<text text-anchor="middle" x="196" y="-587.92" font-family="Helvetica,sans-Serif" font-size="9.00">rulează în ordine</text>
</g>
<!-- controllers -->
<g id="node6" class="node">
<title>controllers</title>
<path fill="#85bbf0" stroke="black" d="M298,-450.62C298,-450.62 106,-450.62 106,-450.62 100,-450.62 94,-444.62 94,-438.62 94,-438.62 94,-405.62 94,-405.62 94,-399.62 100,-393.62 106,-393.62 106,-393.62 298,-393.62 298,-393.62 304,-393.62 310,-399.62 310,-405.62 310,-405.62 310,-438.62 310,-438.62 310,-444.62 304,-450.62 298,-450.62"/>
<text text-anchor="start" x="170" y="-433.62" font-family="Helvetica,sans-Serif" font-weight="bold" font-size="10.00">Controllers</text>
<text text-anchor="start" x="120" y="-424.43" font-family="Helvetica,sans-Serif" font-size="9.00">Auth, Gift, Recommendation, Order,</text>
<text text-anchor="start" x="128.5" y="-415.43" font-family="Helvetica,sans-Serif" font-size="9.00">Review, Category, AdminReport,</text>
<text text-anchor="start" x="116" y="-406.43" font-family="Helvetica,sans-Serif" font-size="9.00">Export/Import, DummyJson, Unsplash</text>
</g>
<!-- container&#45;&gt;controllers -->
<g id="edge13" class="edge">
<title>container&#45;&gt;controllers</title>
<path fill="none" stroke="#ea6c00" stroke-dasharray="5,2" d="M300.82,-510.42C284.31,-495.83 260.92,-475.17 241.04,-457.61"/>
<polygon fill="#ea6c00" stroke="#ea6c00" points="243.15,-454.8 233.34,-450.81 238.51,-460.05 243.15,-454.8"/>
<text text-anchor="middle" x="295" y="-478.43" font-family="Helvetica,sans-Serif" font-size="9.00">injectează</text>
</g>
<!-- mw&#45;&gt;controllers -->
<g id="edge5" class="edge">
<title>mw&#45;&gt;controllers</title>
<path fill="none" stroke="#525252" d="M144.93,-512.09C154.02,-497.91 167.3,-477.22 178.75,-459.36"/>
<polygon fill="#525252" stroke="#525252" points="181.75,-461.17 184.2,-450.86 175.86,-457.39 181.75,-461.17"/>
<text text-anchor="middle" x="201.5" y="-478.43" font-family="Helvetica,sans-Serif" font-size="9.00">cerere validată</text>
</g>
<!-- services -->
<g id="node7" class="node">
<title>services</title>
<path fill="#85bbf0" stroke="black" d="M373.5,-330.62C373.5,-330.62 30.5,-330.62 30.5,-330.62 24.5,-330.62 18.5,-324.62 18.5,-318.62 18.5,-318.62 18.5,-300.62 18.5,-300.62 18.5,-294.62 24.5,-288.62 30.5,-288.62 30.5,-288.62 373.5,-288.62 373.5,-288.62 379.5,-288.62 385.5,-294.62 385.5,-300.62 385.5,-300.62 385.5,-318.62 385.5,-318.62 385.5,-324.62 379.5,-330.62 373.5,-330.62"/>
<text text-anchor="start" x="71" y="-312.62" font-family="Helvetica,sans-Serif" font-size="10.00">AuthService · RecommendationService · OrderService</text>
<text text-anchor="start" x="32.5" y="-301.62" font-family="Helvetica,sans-Serif" font-size="10.00">ReportService · Export/Import · DummyJsonService · UnsplashService</text>
</g>
<!-- controllers&#45;&gt;services -->
<g id="edge6" class="edge">
<title>controllers&#45;&gt;services</title>
<path fill="none" stroke="#525252" d="M202,-393.53C202,-377.59 202,-357.51 202,-341.1"/>
<polygon fill="#525252" stroke="#525252" points="205.5,-340.93 202,-330.93 198.5,-340.93 205.5,-340.93"/>
</g>
<!-- scoring -->
<g id="node8" class="node">
<title>scoring</title>
<path fill="#cbfbf1" stroke="black" d="M163,-224.12C163,-224.12 59,-224.12 59,-224.12 53,-224.12 47,-218.12 47,-212.12 47,-212.12 47,-197.12 47,-197.12 47,-191.12 53,-185.12 59,-185.12 59,-185.12 163,-185.12 163,-185.12 169,-185.12 175,-191.12 175,-197.12 175,-197.12 175,-212.12 175,-212.12 175,-218.12 169,-224.12 163,-224.12"/>
<text text-anchor="start" x="76.5" y="-207.12" font-family="Helvetica,sans-Serif" font-weight="bold" font-size="10.00">ScoringRule</text>
<text text-anchor="start" x="61" y="-197.93" font-family="Helvetica,sans-Serif" font-size="9.00">Strategy + Composite</text>
</g>
<!-- services&#45;&gt;scoring -->
<g id="edge7" class="edge">
<title>services&#45;&gt;scoring</title>
<path fill="none" stroke="#525252" stroke-dasharray="5,2" d="M184.02,-288.28C169.74,-272.11 149.66,-249.38 134.17,-231.85"/>
<polygon fill="#525252" stroke="#525252" points="136.66,-229.38 127.41,-224.2 131.41,-234.01 136.66,-229.38"/>
</g>
<!-- reportf -->
<g id="node9" class="node">
<title>reportf</title>
<path fill="#cbfbf1" stroke="black" d="M333,-224.12C333,-224.12 219,-224.12 219,-224.12 213,-224.12 207,-218.12 207,-212.12 207,-212.12 207,-197.12 207,-197.12 207,-191.12 213,-185.12 219,-185.12 219,-185.12 333,-185.12 333,-185.12 339,-185.12 345,-191.12 345,-197.12 345,-197.12 345,-212.12 345,-212.12 345,-218.12 339,-224.12 333,-224.12"/>
<text text-anchor="start" x="235.5" y="-207.12" font-family="Helvetica,sans-Serif" font-weight="bold" font-size="10.00">ReportFactory</text>
<text text-anchor="start" x="221" y="-197.93" font-family="Helvetica,sans-Serif" font-size="9.00">HTML / JSON / CSV / PDF</text>
</g>
<!-- services&#45;&gt;reportf -->
<g id="edge8" class="edge">
<title>services&#45;&gt;reportf</title>
<path fill="none" stroke="#525252" stroke-dasharray="5,2" d="M216.62,-288.28C228.13,-272.25 244.27,-249.79 256.82,-232.32"/>
<polygon fill="#525252" stroke="#525252" points="259.66,-234.36 262.65,-224.2 253.98,-230.28 259.66,-234.36"/>
</g>
<!-- repos -->
<g id="node10" class="node">
<title>repos</title>
<path fill="#85bbf0" stroke="black" d="M610,-228.62C610,-228.62 418,-228.62 418,-228.62 412,-228.62 406,-222.62 406,-216.62 406,-216.62 406,-192.62 406,-192.62 406,-186.62 412,-180.62 418,-180.62 418,-180.62 610,-180.62 610,-180.62 616,-180.62 622,-186.62 622,-192.62 622,-192.62 622,-216.62 622,-216.62 622,-222.62 616,-228.62 610,-228.62"/>
<text text-anchor="start" x="478" y="-211.62" font-family="Helvetica,sans-Serif" font-weight="bold" font-size="10.00">Repositories</text>
<text text-anchor="start" x="433.5" y="-202.43" font-family="Helvetica,sans-Serif" font-size="9.00">User, Gift, Order, Review, Category,</text>
<text text-anchor="start" x="427.5" y="-193.43" font-family="Helvetica,sans-Serif" font-size="9.00">Brand, Tag, Context, Circumstance, ...</text>
</g>
<!-- services&#45;&gt;repos -->
<g id="edge9" class="edge">
<title>services&#45;&gt;repos</title>
<path fill="none" stroke="#525252" d="M262.9,-288.52C311.9,-272.34 381.14,-249.49 434.5,-231.87"/>
<polygon fill="#525252" stroke="#525252" points="435.88,-235.1 444.28,-228.64 433.68,-228.45 435.88,-235.1"/>
</g>
<!-- ext -->
<g id="node13" class="node">
<title>ext</title>
<path fill="#9ca3af" stroke="black" d="M804,-224.12C804,-224.12 666,-224.12 666,-224.12 660,-224.12 654,-218.12 654,-212.12 654,-212.12 654,-197.12 654,-197.12 654,-191.12 660,-185.12 666,-185.12 666,-185.12 804,-185.12 804,-185.12 810,-185.12 816,-191.12 816,-197.12 816,-197.12 816,-212.12 816,-212.12 816,-218.12 810,-224.12 804,-224.12"/>
<text text-anchor="start" x="668" y="-207.12" font-family="Helvetica,sans-Serif" font-weight="bold" font-size="10.00" fill="white">DummyJSON / Unsplash</text>
<text text-anchor="start" x="694" y="-197.93" font-family="Helvetica,sans-Serif" font-size="9.00" fill="white">[Sisteme externe]</text>
</g>
<!-- services&#45;&gt;ext -->
<g id="edge12" class="edge">
<title>services&#45;&gt;ext</title>
<path fill="none" stroke="#ea6c00" d="M320.29,-288.61C408.17,-273.33 530.87,-251.14 638,-228.62 641.45,-227.9 644.96,-227.14 648.51,-226.37"/>
<polygon fill="#ea6c00" stroke="#ea6c00" points="649.57,-229.72 658.57,-224.13 648.05,-222.89 649.57,-229.72"/>
<text text-anchor="middle" x="518" y="-256.43" font-family="Helvetica,sans-Serif" font-size="9.00">cURL</text>
</g>
<!-- pdo -->
<g id="node11" class="node">
<title>pdo</title>
<path fill="#ffb86a" stroke="black" d="M529,-129.62C529,-129.62 499,-129.62 499,-129.62 493,-129.62 487,-123.62 487,-117.62 487,-117.62 487,-105.62 487,-105.62 487,-99.62 493,-93.62 499,-93.62 499,-93.62 529,-93.62 529,-93.62 535,-93.62 541,-99.62 541,-105.62 541,-105.62 541,-117.62 541,-117.62 541,-123.62 535,-129.62 529,-129.62"/>
<text text-anchor="start" x="501.5" y="-110.12" font-family="Helvetica,sans-Serif" font-weight="bold" font-size="10.00">PDO</text>
</g>
<!-- repos&#45;&gt;pdo -->
<g id="edge10" class="edge">
<title>repos&#45;&gt;pdo</title>
<path fill="none" stroke="#525252" d="M514,-180.19C514,-167.85 514,-152.65 514,-139.79"/>
<polygon fill="#525252" stroke="#525252" points="517.5,-139.66 514,-129.66 510.5,-139.66 517.5,-139.66"/>
</g>
<!-- db -->
<g id="node12" class="node">
<title>db</title>
<path fill="#00786f" stroke="black" d="M561.5,-38.6C561.5,-40.72 540.21,-42.44 514,-42.44 487.79,-42.44 466.5,-40.72 466.5,-38.6 466.5,-38.6 466.5,-4.03 466.5,-4.03 466.5,-1.91 487.79,-0.19 514,-0.19 540.21,-0.19 561.5,-1.91 561.5,-4.03 561.5,-4.03 561.5,-38.6 561.5,-38.6"/>
<path fill="none" stroke="black" d="M561.5,-38.6C561.5,-36.48 540.21,-34.76 514,-34.76 487.79,-34.76 466.5,-36.48 466.5,-38.6"/>
<text text-anchor="start" x="480.5" y="-19.81" font-family="Helvetica,sans-Serif" font-weight="bold" font-size="10.00" fill="white">PostgreSQL</text>
</g>
<!-- pdo&#45;&gt;db -->
<g id="edge11" class="edge">
<title>pdo&#45;&gt;db</title>
<path fill="none" stroke="#525252" d="M514,-93.6C514,-82.13 514,-66.67 514,-53.08"/>
<polygon fill="#525252" stroke="#525252" points="517.5,-52.7 514,-42.7 510.5,-52.7 517.5,-52.7"/>
</g>
</g>
</svg>
